<?xml version="1.0" encoding="iso-8859-1"?>
<!-- Generator: Adobe Illustrator 19.0.0, SVG Export Plug-In . SVG Version: 6.00 Build 0)  -->
<svg version="1.1" id="Capa_1" xmlns="http://www.w3.org/2000/svg" xmlns:xlink="http://www.w3.org/1999/xlink" x="0px" y="0px"
	 viewBox="0 0 512 512" style="enable-background:new 0 0 512 512;" xml:space="preserve">
<g>
	<g>
		<path d="M484.974,155.62H27.025c-9.842,0-17.819,7.977-17.819,17.819v109.884c0,9.842,7.977,17.819,17.819,17.819h457.949
			c9.842,0,17.819-7.977,17.819-17.819V173.439C502.793,163.596,494.816,155.62,484.974,155.62z M467.155,265.503H44.845v-74.246
			h422.311V265.503z"/>
	</g>
</g>
<g>
	<g>
		<path d="M439.376,281.131l-24.198,195.231H96.235L72.03,281.131l-35.365,4.383L62.8,496.373C63.905,505.3,71.49,512,80.483,512
			h350.441c8.993,0,16.578-6.7,17.688-15.627l26.135-210.859L439.376,281.131z"/>
	</g>
</g>
<g>
	<g>
		<path d="M255.703,0C185.288,0,128,57.288,128,127.703v45.736h35.638v-45.736c0-50.766,41.299-92.065,92.065-92.065
			c50.766,0,92.065,41.299,92.065,92.065v45.736h35.638v-45.736C383.406,57.288,326.118,0,255.703,0z"/>
	</g>
</g>
<g>
</g>
<g>
</g>
<g>
</g>
<g>
</g>
<g>
</g>
<g>
</g>
<g>
</g>
<g>
</g>
<g>
</g>
<g>
</g>
<g>
</g>
<g>
</g>
<g>
</g>
<g>
</g>
<g>
</g>
</svg>
