<svg width="68" height="68" viewBox="0 0 68 68" fill="none" xmlns="http://www.w3.org/2000/svg">
<circle cx="34" cy="34" r="34" fill="#15A9CB"/>
<path d="M27.6341 36.2291C27.8521 36.2291 28.0198 36.3297 28.1373 36.531C28.2714 36.7323 28.3385 37.0091 28.3385 37.3613C28.3385 38.0155 28.1792 38.5354 27.8605 38.9212C26.9212 40.045 26.007 40.8334 25.1181 41.2863C24.2458 41.7391 23.1891 41.9656 21.9479 41.9656C21.0757 41.9656 20.2706 41.8566 19.5325 41.6385C18.7945 41.4204 17.8971 41.0934 16.8404 40.6573C15.8843 40.2379 14.9618 39.8941 14.0728 39.6257C13.2174 41.1856 11.9342 41.9656 10.2233 41.9656C9.28403 41.9656 8.53762 41.7559 7.9841 41.3366C7.4138 40.9005 7.12866 40.347 7.12866 39.676C7.12866 38.8541 7.52283 38.1748 8.31118 37.6381C9.09952 37.0845 10.1479 36.8078 11.4562 36.8078H11.7833L12.2361 29.4862C12.3368 27.8089 12.6387 26.4251 13.1419 25.3348C13.6451 24.2446 14.3412 23.3136 15.2302 22.5421C16.0018 21.8711 16.8824 21.3679 17.872 21.0325C18.8616 20.6802 19.9099 20.5041 21.017 20.5041C22.8285 20.5041 24.2207 20.9738 25.1935 21.9131C26.1664 22.8524 26.6528 24.0768 26.6528 25.5864C26.6528 26.6096 26.4683 27.4399 26.0993 28.0773C25.7303 28.6979 25.2187 29.0082 24.5645 29.0082C24.0949 29.0082 23.7259 28.8992 23.4575 28.6811C23.1891 28.4463 23.0549 28.1192 23.0549 27.6999C23.0549 27.5489 23.0885 27.2721 23.1556 26.8696C23.2562 26.3999 23.3065 25.9806 23.3065 25.6116C23.3065 24.9071 23.0969 24.3536 22.6775 23.951C22.275 23.5317 21.6544 23.322 20.8157 23.322C19.3396 23.322 18.1991 23.8084 17.3939 24.7813C16.5888 25.7374 16.0772 27.247 15.8592 29.3101L15.2805 35.0214C15.1966 35.8265 15.0876 36.5226 14.9534 37.1097C16.0269 37.2942 17.3688 37.5877 18.979 37.9903C19.9183 38.2251 20.6396 38.3929 21.1428 38.4935C21.646 38.5941 22.0905 38.6445 22.4763 38.6445C23.4491 38.6445 24.2794 38.4851 24.9671 38.1664C25.6716 37.831 26.3341 37.3026 26.9547 36.5813C27.156 36.3465 27.3825 36.2291 27.6341 36.2291ZM41.1432 34.1157C41.3613 34.1157 41.529 34.2247 41.6464 34.4427C41.7638 34.6608 41.8225 34.9376 41.8225 35.273C41.8225 36.0781 41.5793 36.5562 41.0929 36.7071C40.0865 37.0594 38.9794 37.2607 37.7718 37.311C37.4531 38.7199 36.8241 39.8521 35.8848 40.7076C34.9455 41.5462 33.8804 41.9656 32.6894 41.9656C31.683 41.9656 30.8192 41.7224 30.098 41.2359C29.3935 40.7495 28.8567 40.1037 28.4877 39.2986C28.1187 38.4935 27.9342 37.6213 27.9342 36.682C27.9342 35.4072 28.1774 34.275 28.6638 33.2854C29.1503 32.279 29.8212 31.499 30.6766 30.9455C31.5321 30.3752 32.4798 30.0901 33.5197 30.0901C34.7945 30.0901 35.8177 30.5346 36.5892 31.4235C37.3776 32.2958 37.8389 33.3776 37.973 34.6692C38.7614 34.6189 39.7007 34.4511 40.791 34.166C40.9252 34.1324 41.0426 34.1157 41.1432 34.1157ZM32.8907 39.2986C33.4275 39.2986 33.8887 39.0806 34.2745 38.6445C34.6771 38.2084 34.9455 37.5794 35.0796 36.7575C34.5597 36.4052 34.1571 35.944 33.872 35.3737C33.6036 34.8034 33.4694 34.1995 33.4694 33.5621C33.4694 33.2938 33.4946 33.0254 33.5449 32.757H33.4191C32.7482 32.757 32.1862 33.0841 31.7334 33.7383C31.2973 34.3756 31.0792 35.2814 31.0792 36.4555C31.0792 37.3781 31.2553 38.0826 31.6076 38.569C31.9766 39.0554 32.4043 39.2986 32.8907 39.2986ZM52.545 36.2794C52.7631 36.2794 52.9308 36.3884 53.0482 36.6065C53.1824 36.8078 53.2495 37.0678 53.2495 37.3865C53.2495 37.7722 53.1908 38.0742 53.0734 38.2922C52.956 38.5103 52.7715 38.7032 52.5199 38.8709C51.0773 39.8438 50.0206 40.565 49.3497 41.0347L47.7395 42.1165C47.1021 45.5886 46.2634 48.3143 45.2235 50.2935C44.2003 52.2896 42.892 53.2876 41.2985 53.2876C40.4431 53.2876 39.747 53.0192 39.2102 52.4825C38.6735 51.9625 38.4051 51.2748 38.4051 50.4193C38.4051 49.2284 38.8747 47.9453 39.8141 46.5699C40.7534 45.2112 42.5146 43.5339 45.0977 41.5379L45.2486 40.5566C44.9635 41.0095 44.5861 41.3617 44.1164 41.6133C43.6635 41.8482 43.2107 41.9656 42.7578 41.9656C41.7178 41.9656 40.8875 41.5882 40.2669 40.8334C39.6463 40.0786 39.336 39.089 39.336 37.8645C39.336 36.5226 39.6463 35.2562 40.2669 34.0653C40.8875 32.8577 41.7094 31.8932 42.7326 31.1719C43.7726 30.4339 44.8712 30.0649 46.0286 30.0649C46.3976 30.0649 46.6408 30.1404 46.7582 30.2913C46.8924 30.4255 47.0014 30.6771 47.0853 31.0461C47.404 30.979 47.773 30.9455 48.1923 30.9455C48.6117 30.9455 48.9052 31.0126 49.0729 31.1468C49.2574 31.2642 49.3497 31.5074 49.3497 31.8764C49.3497 32.0777 49.3413 32.237 49.3245 32.3545C49.2574 32.8744 49.0478 34.1911 48.6955 36.3046C48.6284 36.7071 48.553 37.1516 48.4691 37.6381C48.402 38.1077 48.3265 38.6109 48.2427 39.1477C49.5342 38.1413 50.7754 37.2523 51.9663 36.4807C52.1844 36.3465 52.3773 36.2794 52.545 36.2794ZM43.6635 39.4244C44.0493 39.4244 44.4183 39.1896 44.7706 38.7199C45.1228 38.2503 45.3744 37.5794 45.5254 36.7071L46.3305 32.4048C45.6428 32.4216 45.0054 32.6899 44.4183 33.2099C43.8313 33.7131 43.3616 34.384 43.0094 35.2227C42.6571 36.0614 42.481 36.9504 42.481 37.8897C42.481 38.4096 42.5817 38.7954 42.7829 39.047C43.001 39.2986 43.2945 39.4244 43.6635 39.4244ZM41.5753 50.8471C41.9946 50.8471 42.4642 50.3439 42.9842 49.3375C43.521 48.3311 44.0325 46.7292 44.519 44.5319C43.2274 45.6389 42.2965 46.637 41.7262 47.5259C41.1559 48.4149 40.8708 49.1949 40.8708 49.8658C40.8708 50.151 40.9211 50.3858 41.0217 50.5703C41.1391 50.7548 41.3237 50.8471 41.5753 50.8471ZM55.9546 41.9656C54.965 41.9656 54.1179 41.7224 53.4134 41.2359C52.7257 40.7327 52.2057 40.0786 51.8535 39.2735C51.5013 38.4683 51.3251 37.6045 51.3251 36.682C51.3251 35.4072 51.56 34.275 52.0296 33.2854C52.5161 32.279 53.1702 31.499 53.9921 30.9455C54.814 30.3752 55.7365 30.0901 56.7597 30.0901C57.7493 30.0901 58.5964 30.3417 59.3009 30.8449C60.0053 31.3313 60.5337 31.9771 60.8859 32.7822C61.2382 33.5873 61.4143 34.4511 61.4143 35.3737C61.4143 36.6484 61.1711 37.789 60.6847 38.7954C60.1982 39.785 59.5357 40.565 58.697 41.1353C57.8751 41.6888 56.961 41.9656 55.9546 41.9656ZM56.2313 39.2483C56.8016 39.2483 57.2797 38.938 57.6655 38.3174C58.068 37.6968 58.2693 36.791 58.2693 35.6001C58.2693 34.6776 58.1016 33.9815 57.7661 33.5118C57.4306 33.0422 57.0281 32.8073 56.5584 32.8073C55.9546 32.8073 55.4514 33.1176 55.0488 33.7383C54.663 34.3421 54.4701 35.2479 54.4701 36.4555C54.4701 37.4116 54.6379 38.1161 54.9733 38.569C55.3088 39.0219 55.7281 39.2483 56.2313 39.2483Z" fill="white"/>
</svg>
