<?xml version="1.0" encoding="utf-8"?>
<!-- Generator: Adobe Illustrator 24.1.1, SVG Export Plug-In . SVG Version: 6.00 Build 0)  -->
<svg version="1.1" id="Capa_1" xmlns="http://www.w3.org/2000/svg" xmlns:xlink="http://www.w3.org/1999/xlink" x="0px" y="0px"
	 width="443.7px" height="477.9px" viewBox="0 0 443.7 477.9" style="enable-background:new 0 0 443.7 477.9;" xml:space="preserve"
	>
<g>
	<g>
		<path d="M426.7,68.3H307.2V51.2C307.2,22.9,284.3,0,256,0h-68.3c-28.3,0-51.2,22.9-51.2,51.2v17.1H17.1C7.6,68.3,0,75.9,0,85.3
			s7.6,17.1,17.1,17.1h18.6l32.6,360c0.8,8.8,8.2,15.5,17.1,15.5h273.1c8.9,0,16.3-6.7,17.1-15.5l32.6-360h18.6
			c9.4,0,17.1-7.6,17.1-17.1S436.1,68.3,426.7,68.3z M170.7,51.2c0-9.4,7.6-17.1,17.1-17.1H256c9.4,0,17.1,7.6,17.1,17.1v17.1H170.7
			L170.7,51.2L170.7,51.2z M342.8,443.7H100.9L70,102.4h83.6h220.2L342.8,443.7z"/>
	</g>
</g>
<g>
	<g>
		<path d="M170.7,391.4C170.7,391.4,170.7,391.3,170.7,391.4l-17.1-239c-0.7-9.4-8.9-16.5-18.3-15.9c-9.4,0.7-16.5,8.9-15.9,18.3
			l17.1,238.9c0.6,8.9,8.1,15.9,17.1,15.9h1.2C164.2,408.9,171.3,400.8,170.7,391.4z"/>
	</g>
</g>
<g>
	<g>
		<path d="M221.9,136.5c-9.4,0-17.1,7.6-17.1,17.1v238.9c0,9.4,7.6,17.1,17.1,17.1s17.1-7.6,17.1-17.1V153.6
			C238.9,144.2,231.3,136.5,221.9,136.5z"/>
	</g>
</g>
<g>
	<g>
		<path d="M308.4,136.5c-9.4-0.7-17.6,6.4-18.3,15.9l-17.1,238.9c-0.7,9.4,6.4,17.6,15.8,18.3c0,0,0.1,0,0.1,0h1.2
			c9,0,16.4-6.9,17.1-15.9l17.1-238.9C324.9,145.4,317.8,137.2,308.4,136.5z"/>
	</g>
</g>
</svg>
